{
  "asset": {
    "version": "2.0",
    "generator": "THREE.GLTFExporter"
  },
  "scenes": [
    {
      "nodes": [
        0
      ]
    }
  ],
  "scene": 0,
  "nodes": [
    {
      "children": [
        6
      ],
      "matrix": [
        0.01,
        0,
        0,
        0,
        0,
        0.01,
        0,
        0,
        0,
        0,
        0.01,
        0,
        0,
        0,
        0,
        1
      ]
    },
    {
      "matrix": [
        1,
        0,
        0,
        0,
        0,
        1,
        0,
        0,
        0,
        0,
        1,
        0,
        -433,
        2670.330383243708,
        -266.2490414308995,
        1
      ],
      "name": "Rectangle",
      "mesh": 0
    },
    {
      "matrix": [
        0.9998476951563913,
        0.000304586490452135,
        0.017449748351250488,
        0,
        -2.710505431213761e-20,
        0.9998476951563913,
        -0.01745240643728351,
        0,
        -0.01745240643728351,
        0.017449748351250488,
        0.9996954135095478,
        0,
        -464.2,
        2547.6,
        7.652018463402506,
        1
      ],
      "name": "Ellipse",
      "mesh": 1
    },
    {
      "matrix": [
        1,
        0,
        0,
        0,
        0,
        1,
        0,
        0,
        0,
        0,
        1,
        0,
        -324.1072522078208,
        2701.624425583221,
        7340.941522510411,
        1
      ],
      "name": "Camera",
      "camera": 0
    },
    {
      "matrix": [
        1,
        0,
        0,
        0,
        0,
        1,
        0,
        0,
        0,
        0,
        1,
        0,
        -795.846486391282,
        2493.9350624117465,
        2350.6723741908477,
        1
      ],
      "camera": 1
    },
    {
      "matrix": [
        1,
        0,
        0,
        0,
        0,
        1,
        0,
        0,
        0,
        0,
        1,
        0,
        0,
        1,
        0,
        1
      ],
      "name": "Default Ambient Light"
    },
    {
      "name": "Scene",
      "children": [
        1,
        2,
        3,
        4,
        5
      ]
    }
  ],
  "bufferViews": [
    {
      "buffer": 0,
      "byteOffset": 0,
      "byteLength": 1968,
      "target": 34962,
      "byteStride": 12
    },
    {
      "buffer": 0,
      "byteOffset": 1968,
      "byteLength": 1968,
      "target": 34962,
      "byteStride": 12
    },
    {
      "buffer": 0,
      "byteOffset": 3936,
      "byteLength": 1312,
      "target": 34962,
      "byteStride": 8
    },
    {
      "buffer": 0,
      "byteOffset": 5248,
      "byteLength": 1944,
      "target": 34963
    },
    {
      "buffer": 0,
      "byteOffset": 7192,
      "byteLength": 165336,
      "target": 34962,
      "byteStride": 12
    },
    {
      "buffer": 0,
      "byteOffset": 172528,
      "byteLength": 165336,
      "target": 34962,
      "byteStride": 12
    },
    {
      "buffer": 0,
      "byteOffset": 337864,
      "byteLength": 110224,
      "target": 34962,
      "byteStride": 8
    },
    {
      "buffer": 0,
      "byteOffset": 448088,
      "byteLength": 158376,
      "target": 34963
    }
  ],
  "buffers": [
    {
      "byteLength": 606464,
      "uri": "data:application/octet-stream;base64,"
    }
  ],
  "accessors": [
    {
      "bufferView": 0,
      "componentType": 5126,
      "count": 164,
      "max": [
        3371,
        1992.5,
        0
      ],
      "min": [
        -3371,
        -1992.5,
        0
      ],
      "type": "VEC3"
    },
    {
      "bufferView": 1,
      "componentType": 5126,
      "count": 164,
      "max": [
        0,
        0,
        1
      ],
      "min": [
        0,
        0,
        1
      ],
      "type": "VEC3"
    },
    {
      "bufferView": 2,
      "componentType": 5126,
      "count": 164,
      "max": [
        1,
        1
      ],
      "min": [
        0,
        0
      ],
      "type": "VEC2"
    },
    {
      "bufferView": 3,
      "componentType": 5125,
      "count": 486,
      "max": [
        163
      ],
      "min": [
        0
      ],
      "type": "SCALAR"
    },
    {
      "bufferView": 4,
      "componentType": 5126,
      "count": 13778,
      "max": [
        1398.275390625,
        1387.796875,
        230.28225708007812
      ],
      "min": [
        -1411.5867919921875,
        -1410.0203857421875,
        -230.57191467285156
      ],
      "type": "VEC3"
    },
    {
      "bufferView": 5,
      "componentType": 5126,
      "count": 13778,
      "max": [
        0.9997684955596924,
        1,
        0.999999463558197
      ],
      "min": [
        -0.999995231628418,
        -0.9999988079071045,
        -1
      ],
      "type": "VEC3"
    },
    {
      "bufferView": 6,
      "componentType": 5126,
      "count": 13778,
      "max": [
        1,
        1
      ],
      "min": [
        0,
        0
      ],
      "type": "VEC2"
    },
    {
      "bufferView": 7,
      "componentType": 5123,
      "count": 79188,
      "max": [
        13777
      ],
      "min": [
        0
      ],
      "type": "SCALAR"
    }
  ],
  "meshes": [
    {
      "primitives": [
        {
          "mode": 4,
          "attributes": {
            "POSITION": 0,
            "NORMAL": 1,
            "TEXCOORD_0": 2
          },
          "extras": {
            "shape": {
              "points": [
                -3371,
                1992.5,
                -3371,
                1992.5,
                -3371,
                1992.5,
                100,
                3371,
                1992.5,
                3371,
                1992.5,
                3371,
                1992.5,
                100,
                3371,
                -1992.5,
                3371,
                -1992.5,
                3371,
                -1992.5,
                100,
                -3371,
                -1992.5,
                -3371,
                -1992.5,
                -3371,
                -1992.5,
                100
              ],
              "shapeHoles": [],
              "isClosed": true,
              "roundness": 100
            },
            "parameters": {
              "width": 6742,
              "depth": 0,
              "cornerRadius": [
                100,
                100,
                100,
                100
              ],
              "cornerType": 1,
              "extrudeBevelSize": 0,
              "extrudeBevelSegments": 1,
              "height": 3985,
              "type": "RectangleGeometry"
            },
            "ui": {
              "enabledIndieCorners": false
            },
            "type": "RectangleGeometry"
          },
          "indices": 3
        }
      ]
    },
    {
      "primitives": [
        {
          "mode": 4,
          "attributes": {
            "POSITION": 4,
            "NORMAL": 5,
            "TEXCOORD_0": 6
          },
          "extras": {
            "path": {
              "points": [
                {
                  "id": "275c31fd-e525-4798-95c8-e32f862a6cf4",
                  "fi": 0,
                  "data": {
                    "position": [
                      -1308,
                      0,
                      0
                    ],
                    "roundness": 0,
                    "areControlsDirectionsMirrored": true,
                    "controlPrevious": {
                      "position": [
                        -1308,
                        -722.3884527384,
                        0
                      ]
                    },
                    "controlNext": {
                      "position": [
                        -1308,
                        722.3884527384,
                        0
                      ]
                    }
                  }
                },
                {
                  "id": "3ba4d994-2d82-47ea-82ee-ed3f842a7b97",
                  "fi": 1,
                  "data": {
                    "position": [
                      0,
                      1308,
                      0
                    ],
                    "roundness": 0,
                    "areControlsDirectionsMirrored": true,
                    "controlPrevious": {
                      "position": [
                        -722.3884527384,
                        1308,
                        0
                      ]
                    },
                    "controlNext": {
                      "position": [
                        722.3884527384,
                        1308,
                        0
                      ]
                    }
                  }
                },
                {
                  "id": "9d0c9c1a-bff6-427c-92d8-da4f3a0ea22e",
                  "fi": 2,
                  "data": {
                    "position": [
                      1308,
                      0,
                      0
                    ],
                    "roundness": 0,
                    "areControlsDirectionsMirrored": true,
                    "controlPrevious": {
                      "position": [
                        1308,
                        722.3884527384,
                        0
                      ]
                    },
                    "controlNext": {
                      "position": [
                        1308,
                        -722.3884527384,
                        0
                      ]
                    }
                  }
                },
                {
                  "id": "cc232452-873c-4208-ba74-4667d7acdc04",
                  "fi": 3,
                  "data": {
                    "position": [
                      0,
                      -1308,
                      0
                    ],
                    "roundness": 0,
                    "areControlsDirectionsMirrored": true,
                    "controlPrevious": {
                      "position": [
                        722.3884527384,
                        -1308,
                        0
                      ]
                    },
                    "controlNext": {
                      "position": [
                        -722.3884527384,
                        -1308,
                        0
                      ]
                    }
                  }
                }
              ],
              "lastInsertionPlane": null,
              "subdivisions": 12,
              "isClosed": true,
              "roundness": 0
            },
            "parameters": {
              "width": 2616,
              "height": 2616,
              "depth": 0,
              "subdivisions": 12,
              "roundness": 0,
              "extrudeBevelSize": 0,
              "extrudeBevelSegments": 1,
              "spikes": 64,
              "angle": 360,
              "innerRadius": 0,
              "type": "PathGeometry",
              "path": {
                "points": [
                  {
                    "id": "275c31fd-e525-4798-95c8-e32f862a6cf4",
                    "fi": 0,
                    "data": {
                      "position": [
                        -1308,
                        0,
                        0
                      ],
                      "roundness": 0,
                      "areControlsDirectionsMirrored": true,
                      "controlPrevious": {
                        "position": [
                          -1308,
                          -722.3884527384,
                          0
                        ]
                      },
                      "controlNext": {
                        "position": [
                          -1308,
                          722.3884527384,
                          0
                        ]
                      }
                    }
                  },
                  {
                    "id": "3ba4d994-2d82-47ea-82ee-ed3f842a7b97",
                    "fi": 1,
                    "data": {
                      "position": [
                        0,
                        1308,
                        0
                      ],
                      "roundness": 0,
                      "areControlsDirectionsMirrored": true,
                      "controlPrevious": {
                        "position": [
                          -722.3884527384,
                          1308,
                          0
                        ]
                      },
                      "controlNext": {
                        "position": [
                          722.3884527384,
                          1308,
                          0
                        ]
                      }
                    }
                  },
                  {
                    "id": "9d0c9c1a-bff6-427c-92d8-da4f3a0ea22e",
                    "fi": 2,
                    "data": {
                      "position": [
                        1308,
                        0,
                        0
                      ],
                      "roundness": 0,
                      "areControlsDirectionsMirrored": true,
                      "controlPrevious": {
                        "position": [
                          1308,
                          722.3884527384,
                          0
                        ]
                      },
                      "controlNext": {
                        "position": [
                          1308,
                          -722.3884527384,
                          0
                        ]
                      }
                    }
                  },
                  {
                    "id": "cc232452-873c-4208-ba74-4667d7acdc04",
                    "fi": 3,
                    "data": {
                      "position": [
                        0,
                        -1308,
                        0
                      ],
                      "roundness": 0,
                      "areControlsDirectionsMirrored": true,
                      "controlPrevious": {
                        "position": [
                          722.3884527384,
                          -1308,
                          0
                        ]
                      },
                      "controlNext": {
                        "position": [
                          -722.3884527384,
                          -1308,
                          0
                        ]
                      }
                    }
                  }
                ],
                "lastInsertionPlane": null,
                "subdivisions": 12,
                "isClosed": true,
                "roundness": 0
              },
              "extrusion": {
                "shape": {
                  "type": "Custom",
                  "shapeId": "7c159090-5d4b-4967-bb26-fae957eb7c25",
                  "shapeQuality": "high"
                },
                "depth": 1,
                "offset": 0,
                "bevel": 50,
                "bevelSides": 6,
                "angle": 0,
                "twist": 720,
                "startScale": 1,
                "endScale": 1,
                "capType": "flat"
              }
            },
            "shapeData": {
              "points": [
                -25,
                0,
                -25,
                -13.807118744999999,
                -25,
                13.807118744999999,
                0,
                0,
                25,
                -13.807118744999999,
                25,
                13.807118744999999,
                25,
                0,
                25,
                0,
                25,
                13.807118744999999,
                25,
                -13.807118744999999,
                0,
                0,
                -25,
                13.807118744999999,
                -25,
                -13.807118744999999,
                -25,
                0
              ],
              "shapeHoles": [],
              "isClosed": true,
              "roundness": 0
            },
            "type": "PathGeometry"
          },
          "indices": 7
        }
      ]
    }
  ],
  "cameras": [
    {
      "type": "orthographic",
      "orthographic": {
        "xmag": 40.58389052605363,
        "ymag": 22.594072386434537,
        "zfar": 100000,
        "znear": 0
      },
      "name": "Camera"
    },
    {
      "type": "orthographic",
      "orthographic": {
        "xmag": 61.173712192126615,
        "ymag": 34.05694386368686,
        "zfar": 100000,
        "znear": 0
      }
    }
  ]
}